<svg width="84" height="84" viewBox="0 0 84 84" fill="none" xmlns="http://www.w3.org/2000/svg">
<path d="M31.5 35C33.3565 35 35.137 34.2625 36.4497 32.9497C37.7625 31.637 38.5 29.8565 38.5 28C38.5 26.1435 37.7625 24.363 36.4497 23.0503C35.137 21.7375 33.3565 21 31.5 21C29.6435 21 27.863 21.7375 26.5503 23.0503C25.2375 24.363 24.5 26.1435 24.5 28C24.5 29.8565 25.2375 31.637 26.5503 32.9497C27.863 34.2625 29.6435 35 31.5 35Z" stroke="black" stroke-opacity="0.5" stroke-width="1.5" stroke-linecap="round" stroke-linejoin="round"/>
<path d="M45.5 7H31.5C14 7 7 14 7 31.5V52.5C7 70 14 77 31.5 77H52.5C70 77 77 70 77 52.5V35" stroke="black" stroke-opacity="0.5" stroke-width="1.5" stroke-linecap="round" stroke-linejoin="round"/>
<path d="M55.125 17.5H74.375M64.75 27.125V7.875" stroke="black" stroke-opacity="0.5" stroke-width="1.5" stroke-linecap="round"/>
<path d="M9.34497 66.325L26.6 54.74C29.365 52.885 33.355 53.095 35.84 55.23L36.995 56.245C39.725 58.59 44.135 58.59 46.865 56.245L61.425 43.75C64.155 41.405 68.565 41.405 71.295 43.75L77 48.65" stroke="black" stroke-opacity="0.5" stroke-width="1.5" stroke-linecap="round" stroke-linejoin="round"/>
</svg>
