<svg width="294" height="274" viewBox="0 0 294 274" fill="none" xmlns="http://www.w3.org/2000/svg">
<path d="M269.5 137C269.5 74.0942 214.498 22.8333 147 22.8333C79.5025 22.8333 24.5 74.0942 24.5 137C24.5 170.108 39.8125 199.906 64.0675 220.798C64.0675 220.913 64.0675 220.913 63.945 221.027C65.17 222.168 66.64 223.082 67.865 224.109C68.6 224.68 69.2125 225.251 69.9475 225.708C72.1525 227.42 74.6025 229.018 76.93 230.617L79.38 232.215C81.7075 233.699 84.1575 235.069 86.73 236.325C87.5875 236.782 88.5675 237.352 89.425 237.809C91.875 239.065 94.4475 240.207 97.1425 241.234C98.1225 241.691 99.1025 242.147 100.083 242.49C102.778 243.517 105.472 244.431 108.167 245.23C109.147 245.572 110.127 245.915 111.107 246.143C114.047 246.942 116.987 247.627 119.927 248.312C120.785 248.541 121.643 248.769 122.623 248.883C126.053 249.568 129.482 250.025 133.035 250.368C133.525 250.368 134.015 250.482 134.505 250.596C138.67 250.938 142.835 251.167 147 251.167C151.165 251.167 155.33 250.938 159.373 250.596C159.863 250.596 160.353 250.482 160.843 250.368C164.395 250.025 167.825 249.568 171.255 248.883C172.112 248.769 172.97 248.427 173.95 248.312C176.89 247.627 179.953 247.057 182.77 246.143C183.75 245.801 184.73 245.458 185.71 245.23C188.405 244.317 191.222 243.517 193.795 242.49C194.775 242.147 195.755 241.691 196.735 241.234C199.307 240.207 201.88 239.065 204.453 237.809C205.433 237.352 206.29 236.782 207.147 236.325C209.597 234.955 212.048 233.699 214.498 232.215C215.355 231.758 216.09 231.188 216.947 230.617C219.397 229.018 221.725 227.42 223.93 225.708C224.665 225.137 225.278 224.566 226.013 224.109C227.36 223.082 228.708 222.054 229.933 221.027C229.933 220.913 229.933 220.913 229.81 220.798C254.188 199.906 269.5 170.108 269.5 137ZM207.515 193.741C174.318 172.962 119.927 172.962 86.485 193.741C81.095 197.052 76.685 200.933 73.01 205.157C53.7139 187.031 42.8829 162.534 42.875 137C42.875 83.4558 89.5475 39.9583 147 39.9583C204.453 39.9583 251.125 83.4558 251.125 137C251.125 163.487 239.61 187.576 220.99 205.157C217.438 200.933 212.905 197.052 207.515 193.741Z" fill="black"/>
<path d="M147 79.1175C121.642 79.1175 101.062 98.2975 101.062 121.93C101.062 145.106 120.54 163.943 146.387 164.628H148.593C160.484 164.264 171.757 159.606 180.032 151.639C188.307 143.671 192.934 133.018 192.938 121.93C192.938 98.2975 172.357 79.1175 147 79.1175Z" fill="black"/>
</svg>