<svg width="78" height="79" viewBox="0 0 78 79" fill="none" xmlns="http://www.w3.org/2000/svg">
<path d="M71.5 39.5C71.5 21.3629 56.9075 6.58333 39 6.58333C21.0925 6.58333 6.5 21.3629 6.5 39.5C6.5 49.0458 10.5625 57.6371 16.9975 63.6608C16.9975 63.6937 16.9975 63.6937 16.965 63.7267C17.29 64.0558 17.68 64.3192 18.005 64.6154C18.2 64.78 18.3625 64.9446 18.5575 65.0762C19.1425 65.57 19.7925 66.0308 20.41 66.4917L21.06 66.9525C21.6775 67.3804 22.3275 67.7754 23.01 68.1375C23.2375 68.2692 23.4975 68.4337 23.725 68.5654C24.375 68.9275 25.0575 69.2567 25.7725 69.5529C26.0325 69.6846 26.2925 69.8162 26.5525 69.915C27.2675 70.2112 27.9825 70.4746 28.6975 70.705C28.9575 70.8037 29.2175 70.9025 29.4775 70.9683C30.2575 71.1987 31.0375 71.3962 31.8175 71.5937C32.045 71.6596 32.2725 71.7254 32.5325 71.7583C33.4425 71.9558 34.3525 72.0875 35.295 72.1862C35.425 72.1862 35.555 72.2192 35.685 72.2521C36.79 72.3508 37.895 72.4167 39 72.4167C40.105 72.4167 41.21 72.3508 42.2825 72.2521C42.4125 72.2521 42.5425 72.2192 42.6725 72.1862C43.615 72.0875 44.525 71.9558 45.435 71.7583C45.6625 71.7254 45.89 71.6267 46.15 71.5937C46.93 71.3962 47.7425 71.2317 48.49 70.9683C48.75 70.8696 49.01 70.7708 49.27 70.705C49.985 70.4417 50.7325 70.2112 51.415 69.915C51.675 69.8162 51.935 69.6846 52.195 69.5529C52.8775 69.2567 53.56 68.9275 54.2425 68.5654C54.5025 68.4337 54.73 68.2692 54.9575 68.1375C55.6075 67.7425 56.2575 67.3804 56.9075 66.9525C57.135 66.8208 57.33 66.6562 57.5575 66.4917C58.2075 66.0308 58.825 65.57 59.41 65.0762C59.605 64.9117 59.7675 64.7471 59.9625 64.6154C60.32 64.3192 60.6775 64.0229 61.0025 63.7267C61.0025 63.6937 61.0025 63.6937 60.97 63.6608C67.4375 57.6371 71.5 49.0458 71.5 39.5ZM55.055 55.8596C46.2475 49.8687 31.8175 49.8687 22.945 55.8596C21.515 56.8142 20.345 57.9333 19.37 59.1512C14.2506 53.925 11.3771 46.8619 11.375 39.5C11.375 24.0621 23.7575 11.5208 39 11.5208C54.2425 11.5208 66.625 24.0621 66.625 39.5C66.625 47.1367 63.57 54.0821 58.63 59.1512C57.6875 57.9333 56.485 56.8142 55.055 55.8596Z" fill="white"/>
<path d="M39 22.8112C32.2725 22.8112 26.8125 28.3413 26.8125 35.155C26.8125 41.8371 31.98 47.2683 38.8375 47.4658H39.4225C42.5773 47.3608 45.5683 46.0178 47.7636 43.7207C49.9589 41.4235 51.1867 38.352 51.1875 35.155C51.1875 28.3413 45.7275 22.8112 39 22.8112Z" fill="white"/>
</svg>
